<?xml version="1.0" standalone="no"?>
<!DOCTYPE svg PUBLIC "-//W3C//DTD SVG 20010904//EN"
 "http://www.w3.org/TR/2001/REC-SVG-20010904/DTD/svg10.dtd">
<svg version="1.0" xmlns="http://www.w3.org/2000/svg"
 width="150.000000pt" height="150.000000pt" viewBox="0 0 150.000000 150.000000"
 preserveAspectRatio="xMidYMid meet">

<g transform="translate(0.000000,150.000000) scale(0.100000,-0.100000)"
fill="#000000" stroke="none">
<path d="M0 750 l0 -750 750 0 750 0 0 750 0 750 -750 0 -750 0 0 -750z m879
203 c-7 -10 -40 -46 -72 -80 l-60 -61 22 -31 c17 -23 19 -32 9 -36 -7 -2 -53
-15 -103 -28 l-90 -25 -78 41 c-63 33 -75 43 -60 50 72 31 439 186 442 187 2
0 -2 -8 -10 -17z m6 -345 c41 -62 73 -113 71 -115 -1 -2 -78 38 -171 89 -93
50 -164 93 -158 95 57 19 142 42 160 42 18 1 38 -22 98 -111z"/>
</g>
</svg>
